REM DIRINDEX 1\2,1\3,1\5,1\4\6,1\4\7
REM DIRNAME folder01,folder02,folder03,folder04,folder05,folder06,folder07
TITLE ""
FILE "Disk2Track30.mp3" MP3
  TRACK 01 AUDIO
    TITLE "2:cjc065_0775"
    INDEX 01 00:00:00
  TRACK 02 AUDIO
    TITLE "2:cjc065_0776"
    INDEX 01 00:09:63
  TRACK 03 AUDIO
    TITLE "2:cjc065_0777"
    INDEX 01 00:26:69
  TRACK 04 AUDIO
    TITLE "0:"
    INDEX 01 00:44:69
